<svg width="36" height="39" viewBox="0 0 36 39" fill="none" xmlns="http://www.w3.org/2000/svg">
<path fill-rule="evenodd" clip-rule="evenodd" d="M17.66 0.446386L17.8227 0.831115C19.488 4.87679 20.6336 10.9804 21.2591 19.1418L21.3163 19.913L18.7078 23.1586V24.5471C19.3499 24.5471 21.3163 25.893 21.3163 27.9673C21.3163 29.9513 20.0189 30.9373 19.5472 31.0193L19.4882 31.0249V37.8984C19.4882 38.4235 18.9573 38.7229 17.8956 38.7965L17.66 38.8089C16.4413 38.7646 15.8319 38.461 15.8319 37.8984V31.0249C15.4218 31.0249 14.0037 30.0415 14.0037 27.9673C14.0037 25.893 15.9701 24.5471 16.6122 24.5471V23.1586L14.0037 19.913C14.6345 11.0967 15.8533 4.60778 17.66 0.446386ZM0.146453 6.37653L0.41174 6.63135C2.89527 9.06783 5.59138 13.1427 8.50004 18.856L8.8125 19.4743L7.77101 22.6463L8.18758 23.6606C8.68362 23.4634 10.6069 23.8427 11.2292 25.358C11.8517 26.8732 11.051 28.0271 10.7342 28.153C12.1802 31.6733 12.9875 33.639 13.1563 34.0501C13.3131 34.4316 12.9968 34.8114 12.2075 35.1893L12.017 35.2764C11.062 35.6183 10.5001 35.5837 10.3312 35.1727L7.90913 29.2758C7.59234 29.4017 6.20158 29.1187 5.57911 27.6035C4.95676 26.0882 6.07234 24.5013 6.56838 24.3041L6.15168 23.2897L3.1624 21.7198C1.00442 15.0857 -0.000907772 9.97132 0.146453 6.37653ZM35.1736 6.37653C35.3209 9.97132 34.3156 15.0857 32.1576 21.7198L29.1683 23.2897L28.7516 24.3041C29.2477 24.5013 30.3633 26.0882 29.7409 27.6035C29.1184 29.1187 27.7277 29.4017 27.4109 29.2758L24.9888 35.1727C24.82 35.5837 24.258 35.6183 23.303 35.2764L23.1125 35.1893C22.3232 34.8114 22.007 34.4316 22.1637 34.0501C22.3325 33.639 23.1399 31.6733 24.5858 28.153C24.269 28.0271 23.4683 26.8732 24.0908 25.358C24.7132 23.8427 26.6364 23.4634 27.1324 23.6606L27.549 22.6463L26.5075 19.4743L26.82 18.856C29.7286 13.1427 32.4247 9.06783 34.9083 6.63135L35.1736 6.37653ZM17.66 26.2212C16.6503 26.2212 15.8319 27.0263 15.8319 28.0195C15.8319 29.0126 16.6503 29.8177 17.66 29.8177C18.6697 29.8177 19.4882 29.0126 19.4882 28.0195C19.4882 27.0263 18.6697 26.2212 17.66 26.2212ZM7.88026 25.2053C7.10017 25.5153 6.7093 26.3548 7.00739 27.0803C7.30536 27.8058 8.17929 28.1426 8.95939 27.8325C9.7396 27.5225 10.1304 26.6831 9.83238 25.9575C9.53441 25.232 8.66036 24.8953 7.88026 25.2053ZM27.4398 25.2053C26.6597 24.8953 25.7856 25.232 25.4876 25.9575C25.1897 26.6831 25.5804 27.5225 26.3606 27.8325C27.1407 28.1426 28.0147 27.8058 28.3126 27.0803C28.6107 26.3548 28.2199 25.5153 27.4398 25.2053Z" fill="#F8F8F8"/>
</svg>
