<svg width="41" height="36" viewBox="0 0 41 36" fill="none" xmlns="http://www.w3.org/2000/svg">
<path fill-rule="evenodd" clip-rule="evenodd" d="M36.9616 31.1041V35.486H3.89046V31.1041H36.9616ZM18.5533 4.92431L16.4379 8.76594C11.7 10.405 8.29994 14.8826 8.29994 20.1493C8.29994 23.6027 9.76179 26.7168 12.104 28.9139L7.76 28.9145C6.01583 26.43 4.99283 23.4083 4.99283 20.1493C4.99283 12.3089 10.913 5.84276 18.5533 4.92431ZM22.2998 4.92442C29.9396 5.84342 35.8592 12.3094 35.8592 20.1493C35.8592 23.4083 34.8362 26.43 33.092 28.9145L28.7477 28.9141C31.0901 26.717 32.5521 23.6028 32.5521 20.1493C32.5521 14.8833 29.153 10.4063 24.4164 8.76671L22.2998 4.92442ZM20.426 0.430653C31.3848 0.430653 40.2687 9.25902 40.2687 20.1493C40.2687 23.2976 39.5262 26.2735 38.2058 28.9137L35.7039 28.9139C37.2048 26.3356 38.0639 23.3422 38.0639 20.1493C38.0639 10.469 30.1672 2.62161 20.426 2.62161C10.6848 2.62161 2.78809 10.469 2.78809 20.1493C2.78809 23.3422 3.64717 26.3356 5.14815 28.9139L2.64619 28.9137C1.3258 26.2735 0.583351 23.2976 0.583351 20.1493C0.583351 9.25902 9.46724 0.430653 20.426 0.430653ZM20.426 4.81257L27.0402 17.9583C24.8355 17.228 23.3657 17.228 22.6307 17.9583C21.8958 18.6887 21.161 21.6099 20.426 26.7222C19.6911 21.6099 18.9562 18.6887 18.2213 17.9583C17.4863 17.228 16.0165 17.228 13.8118 17.9583L20.426 4.81257Z" fill="#F8F8F8"/>
</svg>
