<svg width="36" height="36" viewBox="0 0 36 36" fill="none" xmlns="http://www.w3.org/2000/svg">
<path fill-rule="evenodd" clip-rule="evenodd" d="M18.8306 1.85566C18.8306 2.64267 18.1915 3.28067 17.4032 3.28067C16.6149 3.28067 15.9758 2.64267 15.9758 1.85566C15.9758 1.06865 16.6149 0.430653 17.4032 0.430653C18.1915 0.430653 18.8306 1.06865 18.8306 1.85566ZM22.8268 7.27061C22.8268 8.21505 22.06 8.98061 21.114 8.98061C20.1681 8.98061 19.4011 8.21505 19.4011 7.27061C19.4011 6.32618 20.1681 5.56062 21.114 5.56062C22.06 5.56062 22.8268 6.32618 22.8268 7.27061ZM14.2626 8.41064C14.8933 8.41064 15.4045 7.90027 15.4045 7.27061C15.4045 6.64105 14.8933 6.13058 14.2626 6.13058C13.632 6.13058 13.1208 6.64105 13.1208 7.27061C13.1208 7.90027 13.632 8.41064 14.2626 8.41064ZM24.9194 12.0278C26.0671 13.5433 26.7479 15.431 26.7479 17.4773C26.7479 22.4726 22.6917 26.522 17.6881 26.522C12.6844 26.522 8.62825 22.4726 8.62825 17.4773C8.62825 15.4309 9.3091 13.5431 10.457 12.0275L0.27459 3.8509C-0.106042 4.99094 0.445856 8.52496 2.2729 10.1209C3.1251 10.8654 3.90691 11.5354 4.59513 12.1252C5.38232 12.7999 6.0473 13.3697 6.55502 13.826V15.821L0.957731 11.5459C1.14803 12.971 1.9274 16.1741 3.64025 17.599C4.70828 18.4877 5.65098 19.1616 6.19502 19.5508C6.34897 19.6608 6.47108 19.7481 6.55502 19.8109V22.091L2.84381 18.9559C2.65349 20.856 4.15752 24.6301 6.15577 26.0809C7.42127 26.9998 9.56549 28.8008 11.7712 30.6536C13.9444 32.479 16.1773 34.3545 17.6886 35.486C19.1998 34.3545 21.4325 32.4789 23.6056 30.6536C25.8114 28.8009 27.9557 26.9996 29.2212 26.0808C31.2195 24.6299 32.7235 20.8559 32.5332 18.9558L28.822 22.0909V19.8108C29.2026 19.5258 30.3065 18.6708 31.6767 17.5309C33.3499 16.1389 33.7518 13.1153 33.947 11.6477L33.9605 11.5458L28.822 15.8208V13.8259C29.3297 13.3696 29.9945 12.7999 30.7818 12.1252L30.783 12.1241C31.4709 11.5345 32.2524 10.8648 33.1041 10.1208C34.9311 8.52477 35.4831 4.99075 35.1024 3.85078L24.9194 12.0278ZM17.6883 24.3709C21.4722 24.3709 24.5397 21.3084 24.5397 17.5308C24.5397 13.7531 21.4722 10.6908 17.6883 10.6908C13.9044 10.6908 10.8368 13.7531 10.8368 17.5308C10.8368 21.3084 13.9044 24.3709 17.6883 24.3709Z" fill="#1F2326"/>
</svg>
