<svg width="32" height="40" viewBox="0 0 32 40" fill="none" xmlns="http://www.w3.org/2000/svg">
<path fill-rule="evenodd" clip-rule="evenodd" d="M16.2608 0.446411C16.2608 2.09899 16.2799 3.36895 15.4821 4.88841L15.5877 4.88722C24.1721 4.88722 31.1311 11.9116 31.1311 20.5768C31.1311 25.7728 28.6288 30.3789 24.7741 33.2342C23.5136 34.4583 20.6249 36.5373 16.1073 39.4703C16.3912 38.2342 16.239 37.1658 15.6509 36.2649L15.5877 36.2663C7.00337 36.2663 0.0443115 29.2418 0.0443115 20.5768C0.0443115 14.5057 3.46033 9.24023 8.45802 6.63148C12.5118 3.79989 15.1124 1.73812 16.2608 0.446411ZM15.5877 11.6532C10.6823 11.6532 6.70579 15.6671 6.70579 20.6186C6.70579 21.5513 6.84686 22.4506 7.10863 23.2961C9.76763 25.2064 14.9361 24.0713 15.4388 18.3773C16.6101 22.9515 15.7924 27.5296 10.1511 27.7086C11.6529 28.8842 13.5393 29.5841 15.5877 29.5841C20.4931 29.5841 24.4697 25.5701 24.4697 20.6186C24.4697 15.6671 20.4931 11.6532 15.5877 11.6532Z" fill="#F8F8F8"/>
</svg>
