<svg width="39" height="30" viewBox="0 0 39 30" fill="none" xmlns="http://www.w3.org/2000/svg">
<path fill-rule="evenodd" clip-rule="evenodd" d="M25.5171 0.737762C31.878 1.74674 35.5432 9.50583 35.7626 12.1594C36.4973 11.3287 36.7338 9.95599 36.4722 8.04168C37.8204 9.18103 38.2112 9.92858 38.2373 12.6429L38.2388 12.9527L38.2401 29.1789C36.009 28.3582 33.2189 27.6854 30.0491 27.2154L30.0487 9.23746C30.0487 6.31553 27.7176 2.35538 25.5171 0.737762ZM0.53985 7.87137C4.41695 15.7913 7.12455 20.3974 8.66242 21.6894L8.66198 27.2219C5.52181 27.6898 2.75588 28.357 0.539062 29.1698L0.53985 7.87137ZM20.0771 0.995326C19.211 4.00588 18.7446 7.0972 18.678 10.2693L18.6696 11.0641L18.6699 26.4719C15.6774 26.4978 12.8188 26.688 10.1869 27.0141L10.1873 8.98274C10.1873 6.04067 9.02202 4.00463 7.61611 2.42728C9.33028 2.97551 10.5949 4.01498 11.4104 5.5458C12.6333 7.84202 11.8941 13.8571 14.1552 13.8571C16.4164 13.8571 16.4185 10.1318 16.6754 7.30505C16.8468 5.42054 17.9807 3.31737 20.0771 0.995326ZM22.1658 5.58106C22.1312 10.0285 22.7736 12.2522 24.0927 12.2522C25.4119 12.2522 25.7865 10.2298 25.2167 6.18481C26.9565 8.25282 27.8264 10.0426 27.8264 11.5539L27.8268 26.9266C25.502 26.6653 23.0124 26.5086 20.4189 26.4754V10.9836C20.4189 8.59389 21.0012 6.793 22.1658 5.58106ZM3.63604 2.83194C6.0687 4.24797 7.46042 5.84636 7.81126 7.62735L7.85262 7.87137L5.22408 13.2513C5.51006 10.3675 4.98069 6.89436 3.63604 2.83194Z" fill="#F8F8F8"/>
</svg>
