<svg width="48" height="24" viewBox="0 0 48 24" fill="none" xmlns="http://www.w3.org/2000/svg">
<path fill-rule="evenodd" clip-rule="evenodd" d="M37.0858 22.8098V1.10685H40.2913L41.7159 2.91539L44.2089 1.10685L47.0583 0.38345V4.00054L44.2089 6.17084L47.0583 9.06464V13.4051H45.6336L41.7159 11.2349L47.0583 17.0223V21.7247L43.4967 23.5332L41.7159 21.7247L40.2913 22.8098H37.0858ZM12.8678 23.1716V1.10695H22.484V23.1716H19.9909L16.4294 21.363V23.1716H12.8678ZM24.9771 23.1716V1.10695H28.5386L29.9633 6.17094L31.0317 1.10695H34.5932V23.1716H29.9633L28.5386 21.363L27.4701 23.1716H24.9771ZM0.758728 1.4686L6.10107 7.97949L0.758728 6.17084V17.7458C1.47104 18.3487 2.46828 19.8438 0.758728 21.0012V23.1715H5.0326L6.45723 21.3629L7.88184 23.1715H10.3749V1.4686H0.758728Z" fill="#1F2326"/>
</svg>
