<svg width="36" height="49" viewBox="0 0 36 49" fill="none" xmlns="http://www.w3.org/2000/svg">
<path fill-rule="evenodd" clip-rule="evenodd" d="M33.068 0.816406L26.5327 13.7215C28.6617 15.7366 29.9889 18.5843 29.9889 21.7408C29.9889 22.4259 29.9264 23.0965 29.8068 23.7471L35.8293 28.5941L28.662 26.989C27.0486 29.9649 24.1058 32.1207 20.6262 32.6663L18.8862 48.4388L17.4517 32.7098C16.4151 32.5766 15.4233 32.301 14.4967 31.9033L10.4788 34.6003L12.2341 30.5972C9.64419 28.6636 7.93041 25.6289 7.79229 22.1905L0.773926 19.4691L8.21239 18.6857C8.66082 17.1279 9.44368 15.711 10.4785 14.5168L10.4788 11.746L13.8011 11.9061C14.7248 11.4312 15.7242 11.0816 16.7764 10.8799H16.6656L18.3706 1.83212L20.0507 10.7405C21.3426 10.8747 22.5685 11.2295 23.69 11.7665L33.068 0.816406ZM18.8862 16.5793C16.0246 16.5793 13.7049 18.8902 13.7049 21.7408C13.7049 24.5915 16.0246 26.9024 18.8862 26.9024C21.7477 26.9024 24.0675 24.5915 24.0675 21.7408C24.0675 18.8902 21.7477 16.5793 18.8862 16.5793Z" fill="#F8F8F8"/>
</svg>
