<svg width="39" height="30" viewBox="0 0 39 30" fill="none" xmlns="http://www.w3.org/2000/svg">
<path fill-rule="evenodd" clip-rule="evenodd" d="M23.3651 7.51734C22.6246 10.352 20.7731 11.7693 17.8109 11.7693H0.037323C0.777884 9.64334 1.88874 8.58034 3.36982 8.58034H16.7C15.2189 7.16304 13.7378 6.45434 12.2567 6.45434H6.70243C7.40928 5.10146 8.79099 4.39424 10.8474 4.3327L11.5708 4.32249C14.7539 4.23405 17.7637 3.12959 16.7 0.0763397H22.2543L38.0469 14.1812C38.4954 14.5818 38.5196 15.2545 38.101 15.6836C38.0836 15.7015 38.0656 15.7188 38.0469 15.7355L22.2543 29.8403H16.7C17.8109 26.6513 14.4784 25.5883 11.1458 25.5883C9.02511 25.5883 7.57917 24.9427 6.80798 23.6512L6.70243 23.4623H12.2567C13.6506 23.4623 15.0446 22.8346 16.4387 21.5791L16.7 21.3363H3.36982C1.95314 21.3363 0.875182 20.3638 0.136014 18.4186L0.037323 18.1473H17.8109C20.6744 18.1473 22.4999 19.4717 23.2874 22.1206L23.3651 22.3993L31.1411 14.9583L23.3651 7.51734Z" fill="#F8F8F8"/>
</svg>
