<svg width="30" height="38" viewBox="0 0 30 38" fill="none" xmlns="http://www.w3.org/2000/svg">
<path fill-rule="evenodd" clip-rule="evenodd" d="M15.7676 27.4529L20.1432 30.9411C20.4026 31.148 20.5537 31.4612 20.5537 31.7923V37.8089L15.0843 33.4485L9.61481 37.8089V31.7923C9.61481 31.4612 9.76586 31.148 10.0253 30.9411L14.4009 27.4529C14.8004 27.1344 15.3681 27.1344 15.7676 27.4529ZM15.816 14.4835L25.661 23.3131C25.8916 23.5198 26.0231 23.8143 26.0231 24.1234V30.1784L15.816 21.0239C15.4001 20.6509 14.7684 20.6509 14.3525 21.0239L4.14537 30.1784V24.1234C4.14537 23.8143 4.27693 23.5198 4.50752 23.3131L14.3525 14.4835C14.7684 14.1104 15.4001 14.1104 15.816 14.4835ZM15.8577 0.427082L28.6641 13.1887C29.0743 13.5976 29.3048 14.1521 29.3048 14.7303V22.5478L24.9293 19.2776V16.459C24.9293 16.1698 24.814 15.8925 24.6089 15.6881L15.8577 6.96751C15.4306 6.54181 14.7379 6.54181 14.3108 6.96751L5.55963 15.6881C5.35453 15.8925 5.23919 16.1698 5.23919 16.459V19.2776L0.863678 22.5478V14.7303C0.863678 14.1521 1.09416 13.5976 1.50445 13.1887L14.3108 0.427082C14.7379 0.00138476 15.4306 0.00138476 15.8577 0.427082Z" fill="#F8F8F8"/>
</svg>
