<svg width="35" height="31" fill="none" xmlns="http://www.w3.org/2000/svg"><path fill-rule="evenodd" clip-rule="evenodd" d="M2.816 15.219l14.7 15.283 14.7-15.283a8.932 8.932 0 00-.074-12.464c-3.516-3.571-9.284-3.571-12.8 0l-1.826 1.854-1.826-1.854c-3.516-3.571-9.285-3.571-12.8 0a8.932 8.932 0 00-.074 12.464zm21.977-1.625c-2.027-.1-3.745-.883-5.155-2.35-1.41-1.466-2.115-3.215-2.115-5.246 0 2.031-.707 3.78-2.122 5.247-1.415 1.466-3.135 2.249-5.162 2.349a7.45 7.45 0 013.672 1.133 7.629 7.629 0 012.642 2.763c.647 1.146.97 2.39.97 3.73 0-2.041.705-3.798 2.115-5.269 1.41-1.471 3.128-2.257 5.155-2.357z" fill="#1F2326"/></svg>