<svg width="46" height="16" viewBox="0 0 46 16" fill="none" xmlns="http://www.w3.org/2000/svg">
<path d="M37.8172 0.351981C41.8453 0.351981 45.1107 3.59892 45.1107 7.60431C45.1107 11.6097 41.8453 14.8566 37.8172 14.8566C34.2037 14.8566 31.2038 12.2435 30.6247 8.81405L29.3081 8.81307V9.52111C29.3081 9.84167 29.1801 10.1491 28.9521 10.3757L24.0897 15.2107C23.615 15.6827 22.8454 15.6827 22.3706 15.2107L17.5083 10.3757C17.2803 10.1491 17.1523 9.84167 17.1523 9.52111V8.81307L14.6201 8.81405C14.041 12.2435 11.0411 14.8566 7.42757 14.8566C3.39947 14.8566 0.134056 11.6097 0.134056 7.60431C0.134056 3.59892 3.39947 0.351981 7.42757 0.351981C11.0415 0.351981 14.0417 2.96574 14.6203 6.39577L17.1523 6.39555V1.65821C17.1523 0.990589 17.6965 0.449452 18.3678 0.449452C18.6439 0.449452 18.9117 0.542793 19.1272 0.714262L22.4709 3.37409C22.9147 3.72725 23.5456 3.72725 23.9896 3.37409L27.3332 0.714262C27.8574 0.297325 28.6224 0.381755 29.0417 0.903116C29.2142 1.1174 29.3081 1.38373 29.3081 1.65821V6.39555L30.6245 6.39577C31.2031 2.96574 34.2033 0.351981 37.8172 0.351981ZM7.42757 3.97815C5.41353 3.97815 3.78082 5.60167 3.78082 7.60431C3.78082 9.60696 5.41353 11.2305 7.42757 11.2305C9.01502 11.2305 10.3655 10.222 10.8665 8.81416L7.42757 8.81307C6.75622 8.81307 6.21199 8.27182 6.21199 7.60431C6.21199 6.9368 6.75622 6.39555 7.42757 6.39555L10.8669 6.39566C10.3663 4.98729 9.01545 3.97815 7.42757 3.97815ZM37.8172 3.97815C36.2293 3.97815 34.8785 4.98729 34.3779 6.39566L37.8172 6.39555C38.4886 6.39555 39.0328 6.9368 39.0328 7.60431C39.0328 8.27182 38.4886 8.81307 37.8172 8.81307L34.3783 8.81416C34.8793 10.222 36.2298 11.2305 37.8172 11.2305C39.8312 11.2305 41.464 9.60696 41.464 7.60431C41.464 5.60167 39.8312 3.97815 37.8172 3.97815Z" fill="#F8F8F8"/>
</svg>
