<svg width="34" height="33" fill="none" xmlns="http://www.w3.org/2000/svg"><path fill-rule="evenodd" clip-rule="evenodd" d="M31.032 16.289c0 7.375-6.229 13.354-13.911 13.354-7.683 0-13.911-5.979-13.911-13.354 0-7.375 6.228-13.354 13.91-13.354 7.683 0 13.912 5.979 13.912 13.354zm2.624 0c0 8.767-7.403 15.874-16.535 15.874C7.988 32.163.585 25.056.585 16.29S7.988.415 17.121.415c9.132 0 16.535 7.107 16.535 15.874zM15.021 8.478l-2.902-2.554a11.47 11.47 0 00-5.033 4.202l1.373 2.636-2.308-.887a10.722 10.722 0 00-.648 6.191l4.006-.77 3.675-6.046-.788 6.047-5.038 5.046c.548.76 1.193 1.45 1.916 2.055l-.028-.046 2.888-2.268-1.5 3.293a11.845 11.845 0 006.224 1.747c2.846 0 5.45-.988 7.463-2.626l-1.689-2.162-6.299-.756 5.775-1.763.262-3.276-2.887-6.3 4.724 6.048v3.276l2.837 1.702a10.689 10.689 0 001.363-5.23 10.76 10.76 0 00-2.366-6.724l-2.359 2.944 1.21-4.184c-2.078-1.933-4.911-3.122-8.034-3.122-.088 0-.175 0-.262.002v2.265l.787 1.26-1.312 5.04-1.05-5.04z" fill="#1F2326"/></svg>