<svg width="47" height="34" viewBox="0 0 47 34" fill="none" xmlns="http://www.w3.org/2000/svg">
<path fill-rule="evenodd" clip-rule="evenodd" d="M10.3644 0.11194C8.72026 9.69972 10.6055 23.5689 22.3654 33.8246C16.6995 33.5576 12.1775 32.7675 8.79962 31.4544C10.8626 30.1339 11.894 29.4737 11.894 29.4737C-0.0284549 21.6514 0.077273 11.8394 1.42256 9.3018C2.70308 12.0475 4.05241 13.7109 5.47055 14.2921C5.03479 8.18263 6.66604 3.45596 10.3644 0.11194ZM36.9019 0.0920753C40.6003 3.43609 42.2315 8.16277 41.7957 14.2722C43.2139 13.6912 44.5632 12.0276 45.8437 9.28206C47.189 11.8195 47.2947 21.6315 35.3723 29.4539C35.3723 29.4539 36.4037 30.1141 38.4667 31.4346C35.0888 32.7477 30.5669 33.5377 24.9009 33.8047C36.6608 23.549 38.546 9.67986 36.9019 0.0920753ZM31.173 16.6676C31.7616 19.8933 28.4658 23.4442 23.6344 26.3122L23.6345 26.3131H23.6332C18.8018 23.4442 15.5063 19.8933 16.0947 16.6676C16.6832 13.4414 22.0073 12.3571 23.6345 16.6676L23.6332 16.6662L23.7291 16.4294C25.4597 12.3988 30.5955 13.5024 31.173 16.6676ZM23.6332 6.33521C25.0335 6.33521 26.1686 7.45326 26.1686 8.83242C26.1686 10.2116 25.0335 11.3296 23.6332 11.3296C22.2328 11.3296 21.0977 10.2116 21.0977 8.83242C21.0977 7.45326 22.2328 6.33521 23.6332 6.33521Z" fill="#F8F8F8"/>
</svg>
