<svg width="38" height="38" viewBox="0 0 38 38" fill="none" xmlns="http://www.w3.org/2000/svg">
<path fill-rule="evenodd" clip-rule="evenodd" d="M7.76267 25.0214C10.5788 29.5511 13.7469 31.8159 17.2671 31.8159V37.1474L16.211 33.4154C13.0429 32.8823 9.34666 31.8159 6.17856 25.9513L7.76267 25.0214ZM30.0981 25.0214L31.6822 25.9513C28.5141 31.8159 24.8178 32.8823 21.6497 33.4154L20.5937 37.1474V31.8159C24.1138 31.8159 27.2819 29.5511 30.0981 25.0214ZM18.9304 4.07634L23.3658 12.8953H21.1481L18.9304 27.2261L16.7127 12.8953H14.495L18.9304 4.07634ZM14.495 13.9977L15.6038 19.5095H7.84184L11.4902 20.5676C6.77922 21.9686 2.97574 23.8206 0.0798569 26.1237C1.7738 23.7661 3.7006 21.64 5.86032 19.7454L1.18871 15.1L2.14698 15.5764C4.47425 16.7332 6.28811 17.6348 7.58858 18.2813L7.61685 18.2954C9.71314 16.6675 12.0058 15.235 14.495 13.9977ZM23.3658 13.9977C29.2797 16.9374 34.0848 20.9793 37.7809 26.1237C34.885 23.8206 31.0815 21.9686 26.3706 20.5676L30.0189 19.5095H22.2569L23.3658 13.9977ZM15.6038 0.76923V7.38345L12.2773 12.8953H8.95069L12.2773 7.38345L15.6038 0.76923ZM22.2569 0.76923L25.5835 7.38345L28.9101 12.8953H25.5835L22.2569 7.38345V0.76923Z" fill="#F8F8F8"/>
</svg>
