<svg width="25" height="44" viewBox="0 0 25 44" fill="none" xmlns="http://www.w3.org/2000/svg">
<path fill-rule="evenodd" clip-rule="evenodd" d="M10.8095 0.462122C9.30501 6.05544 7.29071 16.6103 12.3668 18.7426C15.7509 20.1643 16.4154 16.2736 14.3605 7.07094C17.7323 11.9135 19.1818 16.5845 18.7091 21.0841C19.3358 21.4432 19.9278 21.8584 20.4775 22.3229C21.2866 21.8352 21.691 20.9007 21.691 19.5209C22.5665 21.1266 22.7811 22.7164 22.3349 24.2904C23.8364 26.2927 24.7273 28.7857 24.7273 31.4877C24.7273 38.0968 19.3969 43.4545 12.8217 43.4545C6.2464 43.4545 0.916077 38.0968 0.916077 31.4877C0.916077 29.5829 1.35884 27.7822 2.14661 26.1835C1.37225 24.3799 1.5779 21.8993 2.76408 18.7426C2.76408 21.5848 3.2987 22.2686 3.93007 22.6707C4.1079 22.7839 4.31995 22.8494 4.56621 22.867C4.92438 22.5186 5.30335 22.195 5.70162 21.8959C5.07677 13.6521 6.77914 6.50711 10.8095 0.462122ZM12.8217 25.8193C9.70704 25.8193 7.18218 28.3571 7.18218 31.4877C7.18218 33.9255 8.71311 36.0038 10.8614 36.8044C11.0684 34.8437 11.88 33.4967 13.2966 32.7613C13.2966 34.3326 13.0921 35.9316 14.1615 36.9947C16.6306 36.3894 18.4612 34.1534 18.4612 31.4877C18.4612 28.3571 15.9363 25.8193 12.8217 25.8193Z" fill="#F8F8F8"/>
</svg>
