<svg width="99" height="106" fill="none" xmlns="http://www.w3.org/2000/svg"><path d="M98.594 71.285c-.45-11.327-3.044-17.916-3.111-19.725-.116-3.086-.35-6.113-.54-8.324v-.007a269.33 269.33 0 00-.065-.751 1.48 1.48 0 00-.026-.172l-.572-5.8-.022-.187c.02-.123.027-.25.016-.38-.191-2.138-.36-4.3-.305-5.64.216-5.262.105-11.193-3.977-14.984-4.298-3.995-13.366-5.008-19.987-5.749-2.623-.293-5.1-.57-5.919-.924-2.576-1.114-5.017-3.7-4.695-6.487A1.527 1.527 0 0059.01.961a1.546 1.546 0 00-1.15-.513H41.566c-.439 0-.857.187-1.15.513-.292.326-.43.76-.38 1.194.32 2.779-2.104 5.357-4.672 6.476l-.716.216h-.006l-9.282 1.2c-2.51.326-5.282.762-7.893 1.445-3.163.828-6.09 2.018-8.033 3.823-1.333 1.238-2.241 2.707-2.854 4.304l-.003.002v.004c-1.26 3.29-1.266 7.134-1.12 10.674.07 1.706-.222 4.81-.561 8.404-.366 3.888-.782 8.295-.953 12.859-.064 1.724-2.668 8.573-3.11 19.724-.511 12.924.925 32.153.94 32.346.06.799.73 1.417 1.536 1.417h10.295c.734 0 1.365-.514 1.51-1.229.145-.714 3.553-17.607 4.152-28.9.072-1.34-.125-3.204-.334-5.177-.636-6.023-.423-4.838.435-11.198.535-3.978 1.157-8.59 2.24-12.648 1.135 5.56 3.392 10.724 4.942 14.839.838 2.223 2.053 9.562 2 12.083-.01.483-.041 1.02-.086 1.59l-1.295 9.413-.281 1.704a1.51 1.51 0 00-.01.413l-1.017 5.956a1.454 1.454 0 00-.028.134l-.046.298-.003.016v.003c-.672 4.347-1.12 7.862-1.406 11.034a1.536 1.536 0 001.535 1.669h47.601c.907 0 1.615-.775 1.535-1.669-.533-5.907-1.545-12.02-2.437-17.414-.897-5.423-1.672-10.107-1.734-13.147-.053-2.52 1.162-9.86 2-12.084 1.559-4.139 3.806-9.28 4.941-14.837 1.083 4.058 1.704 8.67 2.24 12.647.858 6.361 1.071 5.176.435 11.198-.21 1.973-.406 3.836-.335 5.178.6 11.292 4.007 28.185 4.152 28.899a1.539 1.539 0 001.51 1.229h10.296c.806 0 1.476-.618 1.537-1.417.015-.194 1.45-19.423.94-32.347zM43.046 3.876z" fill="#1F2326"/></svg>