<svg width="94" height="106" fill="none" xmlns="http://www.w3.org/2000/svg"><path d="M87.338 54.428a14.882 14.882 0 01-3.572-8.03 8.15 8.15 0 01-1.046-3.226c.04-3.573 4.058-5.082 4.271-6.62a12.07 12.07 0 00-1.248-3.58c-2.696-6.063-1.83-6.636-3.58-11.412a31.953 31.953 0 00-6.683-10.985c-4.737-5.042-11.91-7.097-18.305-8.468C26.566-4.4-.07 8.28.358 39.472.545 52.597 8.944 56.923 12.993 66.24a35.63 35.63 0 012.717 18.41c-1.97 16.517-5.99 17.38-4.6 19.61.306.501.856.802 1.444.788h37.872a1.79 1.79 0 001.68-1.222 28.36 28.36 0 016.035-10.61l3.112-3.084c5.394 1.895 12.857 4.43 17.675 5.438a3.293 3.293 0 003.83-2.518c1.469-4.261-.866-4.855.052-8.484.56-2.193 2.1-3.046 3.836-4.068a7.108 7.108 0 00-.724-1.178 1.868 1.868 0 01.36-2.643 95.211 95.211 0 002.285-1.755c-1.191-2.224-2.266-3.689-1.736-6.503.578-3.072 4.293-4.04 5.616-5.033.461-.312.882-.68 1.252-1.097-.039-1.008-4.153-5.462-6.36-7.864z" fill="#1F2326"/></svg>