<svg width="79" height="103" fill="none" xmlns="http://www.w3.org/2000/svg"><path d="M75.364 75.453c-.515-1.261-.973-2.353-1.273-3.258-6.427-19.01-5.276-29.76-3.527-46.03a486.46 486.46 0 001.17-11.753c.477-5.67.43-10.351 0-14.315H26.299c.271 5.707 1.31 14.522 5.973 25.491 8.43 19.846 12.546 38.22 10.488 46.804C41.282 78.56 29.382 83.8 10.104 86.77 3.38 87.805.614 91.48.856 94.661c.227 2.962 2.85 5.028 6.38 5.028 5.839 0 12.2 2.591 12.266 2.614.145.062.3.103.458.123a37.73 37.73 0 004.608.285c5.665 0 10.104-1.359 14.02-2.558 3.34-1.022 6.492-1.987 9.963-1.987 2.077 0 4.163.342 6.357 1.05 2.428.778 5.244 1.171 8.364 1.171 3.906 0 6.91-.623 7.04-.651a1.26 1.26 0 00.178-.047c3.658-1.186 6.165-3.205 7.457-6.008 2.609-5.656-.385-12.924-2.583-18.228z" fill="#1F2326"/></svg>